<svg width="24" height="24" viewBox="0 0 24 24" fill="none" xmlns="http://www.w3.org/2000/svg">
<path fill-rule="evenodd" clip-rule="evenodd" d="M10.2573 2.97289C9.80618 2.97289 9.44048 3.33858 9.44048 3.78969V4.31733H14.5596V3.78969C14.5596 3.33859 14.1939 2.97289 13.7427 2.97289H12V1.77289H13.7427C14.8566 1.77289 15.7596 2.67584 15.7596 3.78969V4.31733H21.818C22.1493 4.31733 22.418 4.58596 22.418 4.91733C22.418 5.2487 22.1493 5.51733 21.818 5.51733H20.2125V18.7933C20.2125 20.6896 18.6752 22.2269 16.7789 22.2269H12.1696V21.0269H16.7789C18.0125 21.0269 19.0125 20.0269 19.0125 18.7933V5.51733H5.32663V18.7933C5.32663 20.0269 6.32665 21.0269 7.56025 21.0269H12.1696V22.2269H7.56025C5.66391 22.2269 4.12663 20.6896 4.12663 18.7933V5.51733H2.18191C1.85054 5.51733 1.58191 5.2487 1.58191 4.91733C1.58191 4.58596 1.85054 4.31733 2.18191 4.31733H8.24048V3.78969C8.24048 2.67584 9.14344 1.77289 10.2573 1.77289H12V2.97289H10.2573ZM7.68912 17.6828V9.83689H8.88912V17.6828H7.68912ZM11.3364 17.6828V9.83689H12.5364V17.6828H11.3364ZM15.1108 17.6828V9.83689H16.3108V17.6828H15.1108Z" fill="#666666"/>
</svg>
