<svg width="24" height="25" viewBox="0 0 24 25" fill="none" xmlns="http://www.w3.org/2000/svg">
<path fill-rule="evenodd" clip-rule="evenodd" d="M10.2573 3.47289C9.80615 3.47289 9.44045 3.83858 9.44045 4.28969V4.81733H14.5595V4.28969C14.5595 3.83859 14.1938 3.47289 13.7427 3.47289H12V2.27289H13.7427C14.8566 2.27289 15.7595 3.17584 15.7595 4.28969V4.81733H21.8179C22.1493 4.81733 22.4179 5.08596 22.4179 5.41733C22.4179 5.7487 22.1493 6.01733 21.8179 6.01733H20.2125V19.2933C20.2125 21.1896 18.6752 22.7269 16.7789 22.7269H12.1695V21.5269H16.7789C18.0124 21.5269 19.0125 20.5269 19.0125 19.2933V6.01733H5.3266V19.2933C5.3266 20.5269 6.32662 21.5269 7.56021 21.5269H12.1695V22.7269H7.56021C5.66388 22.7269 4.1266 21.1896 4.1266 19.2933V6.01733H2.18188C1.85051 6.01733 1.58188 5.7487 1.58188 5.41733C1.58188 5.08596 1.85051 4.81733 2.18188 4.81733H8.24045V4.28969C8.24045 3.17584 9.14341 2.27289 10.2573 2.27289H12V3.47289H10.2573ZM7.68909 18.1828V10.3369H8.88909V18.1828H7.68909ZM11.3363 18.1828V10.3369H12.5363V18.1828H11.3363ZM15.1108 18.1828V10.3369H16.3108V18.1828H15.1108Z" fill="#666666"/>
</svg>
