<svg width="24" height="24" viewBox="0 0 24 24" fill="none" xmlns="http://www.w3.org/2000/svg">
<path d="M2.39948 16.3282V21.6004H7.67171L18.2161 11.056L12.9438 5.78372L2.39948 16.3282ZM6.99996 19.9781L5.64385 19.9783V18.356H4.0217V16.9998L5.175 15.8465L8.15325 18.8247L6.99996 19.9781ZM13.3497 7.93832C13.5354 7.93832 13.6283 8.03131 13.6283 8.21708C13.6283 8.30169 13.5988 8.37338 13.5396 8.43264L6.67041 15.3018C6.61123 15.3607 6.53937 15.3903 6.45494 15.3903C6.26921 15.3903 6.17621 15.2972 6.17621 15.1116C6.17621 15.027 6.20578 14.9553 6.26486 14.896L13.1341 8.02701C13.1931 7.96788 13.2649 7.93832 13.3497 7.93832Z" fill="#666666"/>
<path d="M21.1313 5.84671L18.1532 2.8812C17.8321 2.56031 17.4477 2.39966 16.9998 2.39966C16.5434 2.39966 16.1634 2.56031 15.8593 2.8812L13.7555 4.97237L19.0278 10.2446L21.1316 8.14083C21.4442 7.82819 21.6004 7.44799 21.6004 7.00014C21.6003 6.5609 21.4441 6.17635 21.1313 5.84671Z" fill="#666666"/>
</svg>
