<svg width="8" height="8" viewBox="0 0 8 8" fill="none" xmlns="http://www.w3.org/2000/svg">
<g clip-path="url(#clip0_153_30675)">
<path d="M5.93725 7.50125C5.9075 7.517 5.91 7.522 5.9385 7.5075C5.94728 7.50392 5.95533 7.49875 5.96225 7.49225C5.96225 7.487 5.96225 7.487 5.93725 7.50125V7.50125ZM5.99725 7.46875C5.983 7.4805 5.983 7.4805 6 7.47275C6.00628 7.46981 6.01203 7.46584 6.017 7.461C6.017 7.45425 6.013 7.45575 5.99725 7.46875V7.46875ZM6.03625 7.44525C6.022 7.457 6.022 7.457 6.039 7.44925C6.04531 7.44625 6.05106 7.44219 6.056 7.43725C6.056 7.431 6.052 7.43225 6.03625 7.44525ZM6.07575 7.422C6.0615 7.43375 6.0615 7.43375 6.078 7.42575C6.08725 7.42075 6.095 7.4155 6.095 7.414C6.095 7.40775 6.091 7.409 6.07575 7.422ZM6.129 7.38675C6.10175 7.405 6.09225 7.41675 6.11725 7.40375C6.134 7.3935 6.1625 7.371 6.1575 7.371C6.14675 7.375 6.13775 7.38175 6.12875 7.38675H6.129ZM3.73825 0.00275303C3.72 0.00400303 3.66525 0.00900303 3.61725 0.013003C2.48025 0.116003 1.4165 0.728003 0.74225 1.67075C0.369641 2.18782 0.12744 2.78723 0.03625 3.418C0.004 3.638 0 3.703 0 4.00125C0 4.29925 0.004 4.36325 0.03625 4.58325C0.254 6.086 1.323 7.3475 2.772 7.815C3.03275 7.89825 3.306 7.95575 3.61725 7.991C3.73825 8.004 4.2615 8.004 4.3825 7.991C4.9205 7.931 5.37475 7.79825 5.82425 7.569C5.89325 7.534 5.90625 7.52475 5.897 7.517C5.67772 7.22715 5.4603 6.93589 5.24475 6.64325L4.6055 5.78L3.80475 4.59375C3.53839 4.19657 3.2693 3.80123 2.9975 3.40775C2.99475 3.40775 2.99125 3.935 2.98975 4.578C2.987 5.70425 2.987 5.75 2.97275 5.776C2.95909 5.80741 2.9346 5.83287 2.90375 5.84775C2.879 5.8595 2.85675 5.862 2.7385 5.862H2.60325L2.568 5.84C2.54592 5.82584 2.52798 5.80609 2.516 5.78275L2.499 5.7475L2.50025 4.17975L2.503 2.612L2.52775 2.58075C2.54356 2.56154 2.56301 2.54565 2.585 2.534C2.61775 2.51825 2.63075 2.51575 2.766 2.51575C2.92475 2.51575 2.951 2.522 2.99275 2.56775C3.31713 3.05022 3.63872 3.53456 3.9575 4.02075C4.47725 4.80875 5.18675 5.884 5.5355 6.4115L6.16975 7.37125L6.201 7.3505C6.50581 7.14795 6.78203 6.90536 7.02225 6.62925C7.52614 6.05252 7.8531 5.34278 7.964 4.585C7.99625 4.365 8.00025 4.29975 8.00025 4.00175C8.00025 3.7035 7.99625 3.63975 7.964 3.41975C7.74625 1.917 6.67725 0.655503 5.22825 0.187753C4.95744 0.101983 4.67871 0.0436074 4.39625 0.013503C4.3205 0.00575303 3.8035 -0.00349697 3.7385 0.00325303L3.73825 0.00275303ZM5.375 2.422C5.3936 2.43114 5.41019 2.44389 5.4238 2.45952C5.4374 2.47514 5.44776 2.49333 5.45425 2.513C5.461 2.534 5.46225 2.96875 5.461 3.948L5.45825 5.354L5.211 4.974L4.96225 4.59375V3.573C4.96225 2.91125 4.965 2.54025 4.9685 2.522C4.98074 2.48016 5.00881 2.44473 5.04675 2.42325C5.07775 2.4075 5.08975 2.40625 5.2135 2.40625C5.32925 2.40625 5.34875 2.4075 5.37475 2.422H5.375Z" fill="#1E1E1E"/>
</g>
<defs>
<clipPath id="clip0_153_30675">
<rect width="8" height="8" fill="white"/>
</clipPath>
</defs>
</svg>
