<svg width="24" height="24" viewBox="0 0 24 24" fill="none" xmlns="http://www.w3.org/2000/svg">
<path fill-rule="evenodd" clip-rule="evenodd" d="M9.52662 3.60001C6.23292 3.60001 3.56284 6.27009 3.56284 9.5638C3.56284 12.8575 6.23292 15.5276 9.52662 15.5276C11.1895 15.5276 12.6915 14.8486 13.7745 13.7498C14.8368 12.6718 15.4904 11.1953 15.4904 9.5638C15.4904 6.27009 12.8203 3.60001 9.52662 3.60001ZM1.16284 9.5638C1.16284 4.94461 4.90743 1.20001 9.52662 1.20001C14.1458 1.20001 17.8904 4.94461 17.8904 9.5638C17.8904 11.421 17.284 13.1381 16.26 14.5258L22.4856 20.7515L20.7886 22.4485L14.5736 16.2336C13.1713 17.2961 11.422 17.9276 9.52662 17.9276C4.90743 17.9276 1.16284 14.183 1.16284 9.5638Z" fill="#666666"/>
</svg>
